PathFileType	4	(X/Y/Z)	G:\マイドライブ\biomec\experimentalData\240725\CJ2.trc
DataRate	CameraRate	NumFrames	NumMarkers	Units	OrigDataRate	OrigDataStartFrame	OrigNumFrames
200.00	200.00	      4	52	mm	200.00	1	      1662
Frame#	Time	handR			wrRI			wrRO			elbRI			elbRO			shRF			shRU			shRB			handL			wrLI			wrLO			elbLI			elbLO			shLF			shLU			shLB			toeR			baRI			baRO			heelR			anRI			anRO			knRI			knRO			troR			toeL			baLI			baLO			heelL			anLI			anLO			knLI			knLO			troL			head			earR			earL			clav			c7			ribR			ribL			xiph			ASISR			ASISL			PSISR			PSISL			t8			t11			L1			L3			LS			COX			
		X1	Y1	Z1	X2	Y2	Z2	X3	Y3	Z3	X4	Y4	Z4	X5	Y5	Z5	X6	Y6	Z6	X7	Y7	Z7	X8	Y8	Z8	X9	Y9	Z9	X10	Y10	Z10	X11	Y11	Z11	X12	Y12	Z12	X13	Y13	Z13	X14	Y14	Z14	X15	Y15	Z15	X16	Y16	Z16	X17	Y17	Z17	X18	Y18	Z18	X19	Y19	Z19	X20	Y20	Z20	X21	Y21	Z21	X22	Y22	Z22	X23	Y23	Z23	X24	Y24	Z24	X25	Y25	Z25	X26	Y26	Z26	X27	Y27	Z27	X28	Y28	Z28	X29	Y29	Z29	X30	Y30	Z30	X31	Y31	Z31	X32	Y32	Z32	X33	Y33	Z33	X34	Y34	Z34	X35	Y35	Z35	X36	Y36	Z36	X37	Y37	Z37	X38	Y38	Z38	X39	Y39	Z39	X40	Y40	Z40	X41	Y41	Z41	X42	Y42	Z42	X43	Y43	Z43	X44	Y44	Z44	X45	Y45	Z45	X46	Y46	Z46	X47	Y47	Z47	X48	Y48	Z48	X49	Y49	Z49	X50	Y50	Z50	X51	Y51	Z51	X52	Y52	Z52	

1	0.000	247.94492	1497.07373	784.30243	252.80585	1549.63794	862.15216	294.97000	1492.34326	873.67786	362.66208	1586.51294	1086.07104	290.37503	1597.83618	1093.71509	332.85110	1514.79041	1384.41956	292.87158	1567.28577	1403.77307	304.61926	1618.72778	1367.36182	760.15472	1469.12683	784.91626	767.67816	1521.05505	867.27075	712.96399	1466.90857	863.98224	673.61389	1565.92419	1085.35706	745.09613	1559.21765	1095.66516	651.24622	1489.35095	1384.32019	697.97241	1534.66943	1405.47791	682.75659	1599.17163	1365.73328	402.88065	1390.69690	54.59371	448.59668	1473.50122	38.33107	326.02707	1494.05042	47.54950	412.86829	1676.48145	43.49221	447.01825	1592.93066	119.21594	354.04282	1608.48071	105.79733	443.52057	1570.73755	479.55344	340.86780	1551.10400	478.19366	326.39600	1503.42957	876.76715	640.64606	1387.71375	57.33630	588.27875	1457.31128	55.26146	698.91064	1489.10596	53.36522	628.00244	1673.28284	43.07323	588.25378	1582.54993	133.27885	675.49860	1607.63293	110.80727	569.04877	1568.72632	479.53549	675.53113	1559.53613	488.87253	668.40240	1504.64172	869.00317	486.15225	1582.21240	1699.29089	406.95209	1490.18616	1553.68518	564.16888	1480.63770	1559.58386	493.26016	1482.86963	1383.29077	501.75751	1599.48840	1466.90503	391.47644	1490.48743	1101.37146	615.51239	1484.44299	1099.87451	496.74133	1452.83850	1228.76721	391.31409	1442.91003	970.94861	612.46704	1446.48523	975.64215	442.21780	1617.05481	993.64520	563.38019	1614.27429	995.73157	510.10654	1669.25171	1257.36560	508.53558	1644.17737	1129.52625	510.50177	1625.36865	1072.32080	504.84012	1618.08167	1025.99243	504.77377	1626.29224	986.81445	503.96927	1647.80615	887.60760	
2	0.005	248.41489	1496.25696	784.51349	253.35202	1548.60278	862.11066	295.20758	1491.76917	873.81934	363.57477	1586.83813	1086.06641	290.38965	1597.59326	1093.72424	332.97778	1514.65845	1384.45398	292.92999	1567.14514	1403.82385	304.63452	1618.61865	1367.40442	759.84161	1468.66943	784.86212	767.34595	1520.64539	867.10223	712.63702	1466.46021	863.97961	673.48401	1565.88330	1085.31128	745.03027	1559.16162	1095.57666	651.35645	1489.37573	1384.21936	698.05627	1534.71045	1405.37158	682.80402	1599.19470	1365.62427	402.87296	1390.69995	54.58348	448.58905	1473.50073	38.30590	326.02380	1494.04333	47.55044	412.85986	1676.47302	43.48506	447.03879	1592.93018	119.18183	354.03961	1608.47339	105.82335	443.56552	1570.75830	479.56641	340.87097	1551.14050	478.22470	326.39874	1503.37817	876.76971	640.65784	1387.71008	57.33181	588.28705	1457.31702	55.24866	698.91968	1489.10889	53.33501	627.98163	1673.30347	43.06924	588.23016	1582.57104	133.29716	675.55316	1607.57104	110.80433	569.06042	1568.76550	479.52365	675.54126	1559.55139	488.84836	668.38367	1504.87671	868.92474	486.31430	1582.06152	1699.27600	407.12744	1489.99951	1553.69958	564.34326	1480.54053	1559.49219	493.34167	1482.86011	1383.26709	501.84274	1599.45667	1466.90137	391.48938	1490.44849	1101.43335	615.49457	1484.49573	1099.84265	496.78854	1452.84192	1228.72266	391.31653	1442.89697	970.94910	612.47766	1446.45215	975.63141	442.25549	1617.02576	993.63647	563.40588	1614.23560	995.75641	510.10748	1669.22974	1257.37732	508.45575	1644.18469	1129.48999	510.52551	1625.36206	1072.32239	504.86609	1618.07678	1026.00940	504.81250	1626.27856	986.82294	503.97202	1647.80579	887.62823	
3	0.010	248.69885	1495.35718	784.73608	253.66647	1547.74634	862.10187	295.57971	1491.19690	873.99615	363.69083	1586.57336	1086.09058	290.40445	1597.29590	1093.73389	333.06332	1514.55994	1384.50256	292.99329	1566.99963	1403.85327	304.66812	1618.49780	1367.46838	759.36603	1467.95129	784.87158	767.23022	1519.17786	867.32458	712.38123	1465.92102	864.02612	673.33276	1565.86682	1085.24536	744.92822	1559.12891	1095.40356	651.43378	1489.38416	1384.15186	698.14349	1534.76465	1405.23499	682.87231	1599.20947	1365.54028	402.88736	1390.67822	54.59470	448.60846	1473.45581	38.30545	326.02829	1494.04236	47.53453	412.85086	1676.48169	43.50272	446.97958	1592.88135	119.21274	354.03754	1608.48193	105.81848	443.54358	1570.79211	479.57635	340.85416	1551.14380	478.23886	326.40146	1503.36072	876.76337	640.63678	1387.69641	57.33283	588.28644	1457.31738	55.24994	698.93359	1489.12012	53.32792	628.00153	1673.28284	43.07428	588.23499	1582.57495	133.29875	675.56610	1607.55579	110.81138	569.07336	1568.77673	479.52390	675.56683	1559.59668	488.85626	668.42664	1504.78857	868.96765	486.50281	1581.91394	1699.28784	407.30396	1489.85645	1553.70190	564.48859	1480.50220	1559.46448	493.41525	1482.83252	1383.24219	501.90573	1599.40845	1466.89246	391.53815	1490.42505	1101.41052	615.50287	1484.47351	1099.81860	496.81775	1452.86438	1228.70898	391.33597	1442.89734	970.94916	612.54321	1446.43823	975.63763	442.25323	1617.01819	993.64716	563.59894	1613.55115	995.91071	510.12488	1669.23584	1257.38428	508.50720	1644.15820	1129.51978	510.52570	1625.36011	1072.32104	504.88190	1618.07581	1026.00439	504.83713	1626.26074	986.81281	503.99814	1647.82776	887.64532	
4	0.015	248.89992	1494.40527	784.90100	253.92816	1546.93091	862.19666	295.97244	1490.41333	874.16852	363.74908	1586.33203	1086.08411	290.42139	1596.95361	1093.75684	333.17062	1514.44849	1384.55762	293.04636	1566.89954	1403.89575	304.73550	1618.36316	1367.50122	758.80566	1467.14453	784.84583	766.59302	1519.55212	866.73529	712.13959	1465.42847	864.02826	673.21045	1565.82288	1085.16699	744.78784	1559.01038	1095.22034	651.50055	1489.42395	1384.06677	698.21912	1534.79199	1405.10767	682.99298	1599.23682	1365.43677	402.89175	1390.70557	54.59122	448.63147	1473.50317	38.36090	326.03436	1494.04028	47.56019	412.85553	1676.48267	43.49638	447.01389	1592.96497	119.22504	354.00455	1608.51428	105.86855	443.59335	1570.76575	479.53226	340.86615	1551.16199	478.23407	326.41327	1503.32166	876.76929	640.65320	1387.70361	57.31534	588.29132	1457.31177	55.26196	698.95837	1489.11499	53.34535	628.00763	1673.28149	43.08201	588.25330	1582.55811	133.30475	675.58350	1607.62024	110.85204	569.10785	1568.79614	479.53537	675.55963	1559.59985	488.86813	668.46442	1504.73901	868.95483	486.74179	1581.73010	1699.29163	407.45078	1489.73108	1553.70593	564.65521	1480.44910	1559.33118	493.49936	1482.82495	1383.22437	501.97037	1599.38757	1466.89771	391.51279	1490.35583	1101.42004	615.49304	1484.50464	1099.81079	496.85168	1452.85657	1228.68323	391.38113	1442.88110	970.90540	612.52881	1446.41675	975.61859	442.29260	1616.99585	993.65973	563.46893	1614.08044	995.76782	510.11493	1669.22375	1257.41223	508.48926	1644.15710	1129.50354	510.54373	1625.34619	1072.31262	504.91058	1618.07434	1026.00806	504.86948	1626.25427	986.81146	504.03650	1647.83875	887.67175	
